<svg width="128" height="128" viewBox="0 0 128 128" fill="none" xmlns="http://www.w3.org/2000/svg">
    <rect x="0.5" y="0.939453" width="127" height="127" rx="63.5" fill="#1A1A1A"/>
    <path d="M89.5261 53.5H82.3926C81.9708 51.4482 81.2325 49.6456 80.1778 48.0923C79.1423 46.5391 77.8766 45.2351 76.3809 44.1804C74.9043 43.1065 73.2648 42.3011 71.4622 41.7642C69.6597 41.2273 67.7804 40.9588 65.8244 40.9588C62.2577 40.9588 59.0265 41.8601 56.1309 43.6626C53.2545 45.4652 50.9629 48.1211 49.2563 51.6303C47.5688 55.1396 46.725 59.4446 46.725 64.5455C46.725 69.6463 47.5688 73.9513 49.2563 77.4606C50.9629 80.9698 53.2545 83.6257 56.1309 85.4283C59.0265 87.2308 62.2577 88.1321 65.8244 88.1321C67.7804 88.1321 69.6597 87.8636 71.4622 87.3267C73.2648 86.7898 74.9043 85.994 76.3809 84.9393C77.8766 83.8654 79.1423 82.5518 80.1778 80.9986C81.2325 79.4261 81.9708 77.6236 82.3926 75.5909H89.5261C88.9892 78.6016 88.0112 81.2958 86.5922 83.6737C85.1732 86.0515 83.409 88.0746 81.2996 89.7429C79.1902 91.392 76.822 92.6481 74.1948 93.511C71.5869 94.3739 68.7967 94.8054 65.8244 94.8054C60.8003 94.8054 56.3323 93.5781 52.4203 91.1236C48.5084 88.669 45.4306 85.179 43.187 80.6534C40.9434 76.1278 39.8216 70.7585 39.8216 64.5455C39.8216 58.3324 40.9434 52.9631 43.187 48.4375C45.4306 43.9119 48.5084 40.4219 52.4203 37.9673C56.3323 35.5128 60.8003 34.2855 65.8244 34.2855C68.7967 34.2855 71.5869 34.717 74.1948 35.5799C76.822 36.4428 79.1902 37.7085 81.2996 39.3768C83.409 41.0259 85.1732 43.0394 86.5922 45.4173C88.0112 47.7759 88.9892 50.4702 89.5261 53.5Z" fill="white"/>
</svg>
